<?xml version="1.0" encoding="UTF-8"?><svg xmlns="http://www.w3.org/2000/svg" xmlns:xlink="http://www.w3.org/1999/xlink" fill="none" height="32.0" preserveAspectRatio="xMidYMid meet" style="fill: none;" version="1.0" viewBox="0.0 -0.0 28.0 32.0" width="28.0" zoomAndPan="magnify"><g id="change1_1"><path clip-rule="evenodd" d="M11.2842 3.10035C10.5564 3.85915 10 5.08885 10 6.91411V9H18V6.91419C18 3.61149 15.9024 2.05024 13.9746 2.00121C12.9891 1.97615 12.0158 2.3376 11.2842 3.10035ZM20 9V6.91419C20 2.58764 17.0976 0.0799865 14.0254 0.00185674C12.5109 -0.0366607 10.9842 0.523741 9.84079 1.71597C8.69355 2.91213 8 4.67051 8 6.91411V9H0V27C0 29.7614 2.23858 32 5 32H23C25.7614 32 28 29.7614 28 27V9H20ZM18 11V12H20V11H26V27C26 28.6569 24.6569 30 23 30H5C3.34315 30 2 28.6569 2 27V11H8V12H10V11H18Z" fill="#000" fill-rule="evenodd"/></g></svg>